<svg width="1145" height="1081" viewBox="0 0 1145 1081" fill="none" xmlns="http://www.w3.org/2000/svg">
<path d="M487.102 476.504C487.102 476.504 486.922 476.504 486.803 476.504C486.803 411.495 486.803 346.546 486.803 281.537C486.803 266.572 484.827 264.657 469.623 264.657C448.671 264.597 427.72 264.118 406.829 264.657C361.454 265.974 329.908 297.221 329.549 343.014C328.83 434.182 329.189 525.35 329.01 616.518C329.01 650.34 330.207 684.161 324.221 717.743C306.143 819.506 221.859 902.892 119.676 916.78C87.5312 921.15 54.6078 920.012 22.0435 920.791C4.68391 921.21 1.39154 922.527 1.15209 939.228C0.553486 981.43 0.852764 1023.63 1.03235 1065.77C1.03235 1073.2 4.32473 1079.36 12.7651 1079.48C76.2176 1080.56 140.089 1082.24 201.027 1060.98C311.949 1022.31 398.927 955.091 448.731 845.785C468.785 801.728 479.859 755.276 485.127 707.207C490.813 654.949 487.94 602.631 487.162 550.312C486.803 525.71 487.102 501.047 487.102 476.384V476.504Z" fill="white" fill-opacity="0.1"/>
<path d="M1135.69 296.203C1121.86 296.084 1108.03 296.144 1094.21 296.144C1088.4 296.144 1085.95 299.376 1085.95 304.883C1085.95 318.711 1085.95 332.539 1085.95 346.367C1085.95 352.592 1088.88 355.226 1095.04 355.047C1101.81 354.867 1108.57 355.047 1115.34 355.047C1122.4 355.047 1129.46 355.047 1136.53 355.047C1142.27 355.047 1144.91 352.353 1144.85 346.606C1144.73 332.778 1144.73 318.951 1144.85 305.123C1144.85 298.718 1141.38 296.263 1135.63 296.263L1135.69 296.203Z" fill="white" fill-opacity="0.1"/>
<path d="M1144.84 439.031C1144.84 432.566 1144.66 426.101 1144.9 419.696C1145.14 413.231 1142.81 409.939 1135.92 410.058C1122.39 410.238 1108.92 410.238 1095.4 410.058C1089.35 409.999 1086.48 412.094 1086.54 418.559C1086.66 432.327 1085.82 446.154 1086.54 459.922C1086.72 462.975 1091.8 468.123 1094.8 468.303C1109.16 468.961 1123.65 468.602 1138.02 467.704C1140.41 467.525 1144.06 463.095 1144.48 460.222C1145.44 453.278 1144.78 446.154 1144.78 439.091L1144.84 439.031Z" fill="white" fill-opacity="0.1"/>
<path d="M1034.78 367.797C1021.25 367.916 1007.66 367.916 994.133 367.797C988.386 367.737 985.573 370.071 985.573 375.938C985.633 390.125 985.573 404.252 985.453 418.439C985.453 424.365 988.686 426.759 994.133 426.7C1008.02 426.58 1021.85 426.4 1035.74 426.221C1041 426.161 1043.52 423.706 1043.34 418.199C1043.1 411.136 1043.34 404.072 1043.34 396.949H1043.82C1043.82 390.185 1043.76 383.42 1043.82 376.596C1043.94 370.37 1041 367.677 1034.84 367.737L1034.78 367.797Z" fill="white" fill-opacity="0.1"/>
<path d="M1143.92 549.354C1143.92 525.829 1143.56 525.41 1119.86 525.59C1112.5 525.59 1105.07 525.59 1097.71 525.47C1089.45 525.29 1085.5 529.181 1085.62 537.502C1085.74 551.33 1085.62 565.158 1085.62 580.003H1043.18C1043.18 576.352 1043.18 573.059 1043.18 569.767C1043.18 545.464 1043.06 521.1 1043.18 496.797C1043.18 489.134 1040.3 485.543 1032.22 485.662C1021.15 485.842 1010.07 485.243 998.999 484.944C986.668 484.645 985.77 485.423 985.77 497.695C985.65 553.425 985.471 609.155 985.471 664.946C985.471 694.996 983.017 724.866 971.823 752.881C933.332 849.496 863.834 907.322 759.137 918.636C732.619 921.509 705.622 920.252 678.864 920.431C661.205 920.551 657.494 923.724 657.553 941.203C657.613 980.951 657.673 1020.64 657.853 1060.39C657.853 1076.97 660.127 1079.24 676.35 1079.48C733.337 1080.32 790.923 1081.82 845.756 1064.28C1003.31 1013.81 1104.71 910.495 1137.1 745.518C1142.19 719.479 1142.73 692.362 1143.44 665.724C1144.52 626.934 1143.86 588.144 1143.92 549.295V549.354Z" fill="white" fill-opacity="0.1"/>
<path d="M669.651 750.786C697.007 750.307 724.663 751.744 751.66 748.272C789.073 743.363 815.172 712.415 815.651 674.763C816.429 615.62 815.831 556.538 815.831 497.395C816.31 497.395 816.729 497.395 817.208 497.395C817.208 440.767 815.053 383.959 817.686 327.45C822.535 221.257 894.847 132.963 997.029 103.631C1030.07 94.1728 1063.83 93.694 1097.72 94.2926C1107.89 94.4722 1118.07 94.5919 1128.18 94.3525C1139.5 94.0532 1144.71 89.0847 1144.77 77.771C1144.95 35.5692 1144.89 -6.63269 1144.71 -48.7747C1144.71 -59.9088 1140.7 -64.578 1131 -64.6379C1076.52 -64.8174 1021.57 -67.7506 968.416 -53.3242C810.443 -10.5836 710.476 90.8207 668.094 248.793C659.774 279.861 657.14 311.827 657.08 343.912C656.9 471.715 656.781 599.518 656.721 727.321C656.721 731.631 656.781 736 657.559 740.191C658.756 746.656 662.827 750.966 669.591 750.846L669.651 750.786ZM718.258 252.744C718.258 247.177 720.712 245.321 725.92 245.381C737.593 245.561 749.325 245.561 760.998 245.381C766.925 245.321 769.02 248.135 768.78 253.762C768.541 259.329 768.78 264.896 768.78 270.523C768.78 276.629 769.319 282.794 768.481 288.84C768.122 291.295 764.949 295.185 762.914 295.305C750.463 296.083 737.952 296.442 725.501 295.844C722.867 295.724 718.497 291.235 718.377 288.601C717.719 276.688 718.437 264.716 718.377 252.804L718.258 252.744Z" fill="white" fill-opacity="0.1"/>
<path d="M22.7471 751.265C41.2441 750.965 59.6812 751.025 78.1782 750.905C125.528 750.666 159.469 716.665 159.589 669.076C159.828 559.71 159.828 450.404 160.128 341.038C160.247 301.949 168.149 264.417 186.826 229.997C233.996 143.019 307.685 98.183 406.455 94.8308C427.705 94.1125 448.956 94.8309 470.207 94.7112C484.633 94.7112 487.926 91.6583 487.926 77.591C487.926 34.7905 487.746 -8.00999 487.506 -50.8703C487.447 -62.4833 485.531 -64.1594 474.038 -64.3988C424.413 -65.2967 374.729 -66.0749 325.882 -55.9584C208.795 -31.7747 119.722 32.7553 58.1249 134.638C19.7541 198.151 1.0775 267.769 0.658473 341.996C0.299308 403.892 0.598645 465.788 0.598645 527.744C0.419062 527.744 0.239443 527.744 0 527.744C0 594.908 0 662.012 0 729.176C0 748.511 3.53177 751.564 22.807 751.265H22.7471ZM64.8293 252.744C64.8293 247.177 67.2835 245.321 72.4914 245.381C84.1643 245.56 95.897 245.56 107.57 245.381C113.496 245.321 115.591 248.134 115.352 253.761C115.112 259.328 115.352 264.896 115.352 270.522C115.352 276.628 115.891 282.794 115.052 288.84C114.693 291.294 111.521 295.185 109.485 295.305C97.0344 296.083 84.5235 296.442 72.0725 295.843C69.4386 295.724 65.0687 291.234 64.949 288.6C64.2905 276.688 65.0089 264.716 64.949 252.803L64.8293 252.744Z" fill="white" fill-opacity="0.1"/>
</svg>
